<?xml version="1.0" encoding="utf-8"?>
<!-- Generator: Adobe Illustrator 15.1.0, SVG Export Plug-In  -->
<!DOCTYPE svg PUBLIC "-//W3C//DTD SVG 1.1//EN" "http://www.w3.org/Graphics/SVG/1.1/DTD/svg11.dtd" [
	<!ENTITY ns_flows "http://ns.adobe.com/Flows/1.0/">
]>
<svg version="1.1"
	 xmlns="http://www.w3.org/2000/svg" xmlns:xlink="http://www.w3.org/1999/xlink" xmlns:a="http://ns.adobe.com/AdobeSVGViewerExtensions/3.0/"
	 x="0px" y="0px" width="96px" height="96px" viewBox="-1.229 -2.264 96 96"
	 overflow="visible" enable-background="new -1.229 -2.264 96 96" xml:space="preserve">
<defs>
</defs>
<path fill="#010101" d="M5.631,80.713c2.668,0,4.041,1.496,4.041,1.496l-0.956,1.48c0,0-1.25-1.156-2.993-1.156
	c-2.313,0-3.671,1.728-3.671,3.764c0,2.083,1.403,3.919,3.687,3.919c1.897,0,3.178-1.389,3.178-1.389l1.049,1.435
	c0,0-1.512,1.774-4.304,1.774C2.313,92.036,0,89.552,0,86.328C0,83.15,2.406,80.713,5.631,80.713z"/>
<path fill="#010101" d="M16.646,80.713c3.225,0,5.662,2.452,5.662,5.584c0,3.225-2.438,5.739-5.662,5.739
	c-3.224,0-5.661-2.515-5.661-5.739C10.984,83.165,13.422,80.713,16.646,80.713z M16.646,90.216c2.006,0,3.61-1.667,3.61-3.919
	c0-2.159-1.604-3.764-3.61-3.764c-2.005,0-3.609,1.604-3.609,3.764C13.036,88.549,14.641,90.216,16.646,90.216z"/>
<path fill="#010101" d="M24.175,80.897h3.733c3.378,0,5.584,2.006,5.584,5.461c0,3.456-2.206,5.492-5.584,5.492h-3.733V80.897z
	 M27.8,90.139c2.222,0,3.641-1.312,3.641-3.78c0-2.438-1.45-3.748-3.641-3.748h-1.635v7.528H27.8z"/>
<path fill="#010101" d="M35.437,80.897h6.556v1.713h-4.565v2.869h3.687v1.712h-3.687v2.947h4.812v1.712h-6.803V80.897z"/>
<path fill="#010101" d="M44.539,80.897h1.99v9.241h4.735v1.712h-6.726V80.897z"/>
<path fill="#010101" d="M59.349,89.043h-3.841l-0.926,2.808H52.53l3.856-10.953h2.083l3.856,10.953h-2.052L59.349,89.043z
	 M57.42,82.795c0,0-0.246,1.08-0.463,1.697l-0.972,2.931h2.87l-0.973-2.931c-0.2-0.617-0.432-1.697-0.432-1.697H57.42z"/>
<path fill="#010101" d="M64.116,80.897h3.918c1.975,0,3.379,1.019,3.379,2.823c0,1.019-0.494,1.897-1.327,2.345v0.031
	c1.203,0.354,1.774,1.465,1.774,2.576c0,2.19-1.759,3.178-3.779,3.178h-3.965V80.897z M68.034,85.371
	c0.864,0,1.357-0.617,1.357-1.403c0-0.787-0.463-1.357-1.388-1.357h-1.897v2.761H68.034z M68.234,90.139
	c1.019,0,1.59-0.664,1.59-1.59c0-0.91-0.587-1.573-1.59-1.573h-2.128v3.163H68.234z"/>
<path fill="#010101" d="M76.812,87.809l4.721-6.911h2.36v6.479h1.419v1.65h-1.419v2.823h-1.959v-2.823h-5.122V87.809z
	 M81.935,87.377v-3.394c0-0.54,0.077-1.142,0.077-1.142H81.98c0,0-0.246,0.586-0.54,1.002l-2.529,3.502v0.031H81.935z"/>
<path fill="#010101" d="M86.732,90.879c0-3.949,5.121-4.582,5.121-6.757c0-0.957-0.74-1.527-1.666-1.527
	c-1.28,0-1.975,1.296-1.975,1.296l-1.48-0.987c0,0,1.003-2.19,3.625-2.19c1.929,0,3.563,1.172,3.563,3.239
	c0,3.518-4.905,4.119-4.952,6.187h5.122v1.712h-7.266C86.778,91.496,86.732,91.188,86.732,90.879z"/>
<path fill="#D0043C" d="M75.553,35.74c-3.17,5.082-9.221,12.754-18.67,15.914c-9.623,3.217-29.889-0.428-30.307-2.578
	c-0.383-1.971,10.207,2.02,10.324-0.674c0.029-0.703-10.105-0.541-14.027-1.85c-3.555-1.184-4.271-3.502-4.676-4.992
	c-1.209-4.43-1.555-18.629,6.695-16.094c12.572,3.869,36.16,17.057,48.061,9.801c6.756-4.119-1.113-6.793,1.158-10.387
	c1.143-1.809-0.277,1.537,4.051,4.102c1.836,1.089,3.4,1.106,4.488,0.971C79.76,12.949,64.967,0,47.141,0
	c-19.9,0-36.035,16.133-36.035,36.033S27.24,72.068,47.141,72.068s36.031-16.135,36.031-36.035c0-1.372-0.084-2.725-0.234-4.058
	C81.043,33.549,77.883,32.009,75.553,35.74z"/>
<ellipse fill="#D0043C" cx="37.555" cy="44.312" rx="1.463" ry="1.055"/>
</svg>
